<svg xmlns="http://www.w3.org/2000/svg" width="62" height="60" viewBox="0 0 62 60"><g><g><g><path fill="none" stroke="#6c1efc" stroke-linecap="square" stroke-miterlimit="20" stroke-width="2" d="M20.373 31.183a2.064 2.064 0 0 1 0-2.366C21.946 26.59 25.819 22 31 22c5.181 0 9.054 4.59 10.627 6.817.497.71.497 1.656 0 2.366C40.054 33.41 36.181 38 31 38c-5.181 0-9.054-4.59-10.627-6.817z"/></g><g><path fill="none" stroke="#6c1efc" stroke-linecap="square" stroke-miterlimit="20" stroke-width="2" d="M27 30a4 4 0 1 1 8 0 4 4 0 0 1-8 0z"/></g><g><path fill="none" stroke="#6c1efc" stroke-linecap="square" stroke-miterlimit="20" stroke-width="2" d="M21 40l20-20"/></g></g></g></svg>